<svg width="38" height="38" viewBox="0 0 38 38" fill="none" xmlns="http://www.w3.org/2000/svg">
<rect x="-0.00799561" y="0.618896" width="37.024" height="37.024" rx="10.68" fill="#F6F6F6"/>
<path d="M18.4656 15.0944C16.2545 15.0944 14.4711 16.8778 14.4711 19.0889C14.4711 21.3 16.2545 23.0835 18.4656 23.0835C20.6767 23.0835 22.4602 21.3 22.4602 19.0889C22.4602 16.8778 20.6767 15.0944 18.4656 15.0944ZM18.4656 21.6859C17.0368 21.6859 15.8686 20.5213 15.8686 19.0889C15.8686 17.6566 17.0333 16.4919 18.4656 16.4919C19.898 16.4919 21.0626 17.6566 21.0626 19.0889C21.0626 20.5213 19.8945 21.6859 18.4656 21.6859ZM23.5553 14.931C23.5553 15.449 23.1381 15.8627 22.6236 15.8627C22.1056 15.8627 21.6919 15.4455 21.6919 14.931C21.6919 14.4164 22.1091 13.9992 22.6236 13.9992C23.1381 13.9992 23.5553 14.4164 23.5553 14.931ZM26.201 15.8766C26.1419 14.6285 25.8568 13.523 24.9425 12.6121C24.0316 11.7012 22.9261 11.4162 21.678 11.3536C20.3917 11.2806 16.5362 11.2806 15.2498 11.3536C14.0052 11.4127 12.8997 11.6978 11.9853 12.6086C11.071 13.5195 10.7894 14.625 10.7268 15.8731C10.6538 17.1594 10.6538 21.0149 10.7268 22.3013C10.7859 23.5494 11.071 24.6549 11.9853 25.5658C12.8997 26.4766 14.0017 26.7617 15.2498 26.8243C16.5362 26.8973 20.3917 26.8973 21.678 26.8243C22.9261 26.7652 24.0316 26.4801 24.9425 25.5658C25.8533 24.6549 26.1384 23.5494 26.201 22.3013C26.274 21.0149 26.274 17.1629 26.201 15.8766ZM24.5392 23.6815C24.268 24.3629 23.7431 24.8878 23.0582 25.1625C22.0326 25.5692 19.599 25.4754 18.4656 25.4754C17.3323 25.4754 14.8952 25.5658 13.8731 25.1625C13.1917 24.8913 12.6667 24.3664 12.3921 23.6815C11.9853 22.6559 12.0792 20.2223 12.0792 19.0889C12.0792 17.9556 11.9888 15.5185 12.3921 14.4964C12.6633 13.815 13.1882 13.29 13.8731 13.0154C14.8987 12.6086 17.3323 12.7025 18.4656 12.7025C19.599 12.7025 22.0361 12.6121 23.0582 13.0154C23.7396 13.2866 24.2645 13.8115 24.5392 14.4964C24.946 15.522 24.8521 17.9556 24.8521 19.0889C24.8521 20.2223 24.946 22.6594 24.5392 23.6815Z" fill="#115469"/>
</svg>
