<svg width="38" height="38" viewBox="0 0 38 38" fill="none" xmlns="http://www.w3.org/2000/svg">
<rect x="0.976013" y="0.618896" width="37.024" height="37.024" rx="10.68" fill="#F6F6F6"/>
<path d="M15.839 15.8629V24.8909H13.4276V15.8629H15.839ZM13.2774 13.51C13.2774 13.1596 13.3998 12.8703 13.6445 12.6422C13.8893 12.4142 14.2175 12.3001 14.6291 12.3001C15.0352 12.3001 15.3606 12.4142 15.6053 12.6422C15.8556 12.8703 15.9808 13.1596 15.9808 13.51C15.9808 13.8604 15.8556 14.1497 15.6053 14.3777C15.3606 14.6058 15.0352 14.7198 14.6291 14.7198C14.2175 14.7198 13.8893 14.6058 13.6445 14.3777C13.3998 14.1497 13.2774 13.8604 13.2774 13.51ZM20.5195 17.7903V24.8909H18.1165V15.8629H20.3693L20.5195 17.7903ZM20.169 20.0598H19.5182C19.5182 19.3923 19.6044 18.7916 19.7769 18.2576C19.9493 17.718 20.1913 17.2591 20.5028 16.8809C20.8143 16.4971 21.1842 16.205 21.6125 16.0048C22.0464 15.799 22.5303 15.6961 23.0643 15.6961C23.4871 15.6961 23.8736 15.7572 24.2241 15.8796C24.5745 16.002 24.8749 16.1967 25.1252 16.4637C25.3811 16.7307 25.5758 17.0839 25.7093 17.5233C25.8483 17.9628 25.9179 18.4996 25.9179 19.1337V24.8909H23.4982V19.1253C23.4982 18.7248 23.4426 18.4133 23.3313 18.1908C23.2201 17.9683 23.056 17.8126 22.839 17.7236C22.6276 17.629 22.3662 17.5817 22.0547 17.5817C21.7321 17.5817 21.4512 17.6457 21.212 17.7736C20.9784 17.9016 20.7837 18.0796 20.6279 18.3076C20.4777 18.5301 20.3637 18.7916 20.2858 19.092C20.208 19.3923 20.169 19.715 20.169 20.0598Z" fill="#115469"/>
</svg>
