<svg width="38" height="38" viewBox="0 0 38 38" fill="none" xmlns="http://www.w3.org/2000/svg">
<rect x="0.984009" y="0.618896" width="37.024" height="37.024" rx="10.68" fill="#F6F6F6"/>
<path d="M28.3464 15.6136C28.3577 15.7718 28.3577 15.9299 28.3577 16.088C28.3577 20.9107 24.6871 26.4676 17.9782 26.4676C15.9113 26.4676 13.9912 25.8689 12.3761 24.8299C12.6698 24.8638 12.9521 24.8751 13.2571 24.8751C14.9625 24.8751 16.5325 24.2991 17.7861 23.3165C16.1823 23.2826 14.8383 22.2322 14.3752 20.7865C14.6011 20.8204 14.827 20.8429 15.0642 20.8429C15.3917 20.8429 15.7193 20.7978 16.0242 20.7187C14.3527 20.3799 13.0989 18.9116 13.0989 17.1384V17.0932C13.5846 17.3643 14.1493 17.5337 14.7479 17.5563C13.7653 16.9012 13.1215 15.7831 13.1215 14.5181C13.1215 13.8404 13.3022 13.2192 13.6185 12.6771C15.4143 14.8908 18.1137 16.3365 21.1405 16.4946C21.0841 16.2235 21.0502 15.9412 21.0502 15.6588C21.0502 13.6484 22.6766 12.0107 24.6983 12.0107C25.7487 12.0107 26.6974 12.4512 27.3638 13.1628C28.1882 13.0047 28.9788 12.6997 29.6791 12.2818C29.408 13.1289 28.832 13.8405 28.0753 14.2922C28.8095 14.2132 29.521 14.0098 30.1761 13.7275C29.6792 14.4503 29.058 15.0941 28.3464 15.6136Z" fill="#115469"/>
</svg>
